<svg width="188" height="86" xmlns="http://www.w3.org/2000/svg" xmlns:xlink="http://www.w3.org/1999/xlink" xml:space="preserve" overflow="hidden"><g transform="translate(-100 -55)"><path d="M10.3897 15.1652 5.99338 9.32162 1.3393 9.32162 3.7053 5.87202 0.00256222 0.0023631 6.12186 3.34912 9.07786 0.285597 9.12925 5.84626 14.0659 9.37307 10.0292 9.27017Z" fill="#ED1C24" fill-rule="evenodd" transform="matrix(1.00947 0 0 -1 140.486 106.102)"/><path d="M0.00222363 1.24047 30.7971 1.24047C32.2964 1.26939 32.8813 0.689157 33.5445 0.0022244 33.9913 3.78215 32.3298 4.91046 29.9966 4.87096L0.0556581 4.87096ZM67.8879 1.24047 37.0925 1.24047C35.5941 1.26939 35.0088 0.689157 34.3456 0.0022244 33.8986 3.78215 35.5607 4.91046 37.8935 4.87096L67.8347 4.87096ZM67.8879 5.69378 38.5336 5.69378C36.0049 5.83891 34.533 5.06792 33.9562 4.43781 33.9511 4.45243 33.9467 4.46686 33.9426 4.48128 33.9398 4.46686 33.9372 4.45243 33.934 4.43781 33.3572 5.06792 31.8855 5.83891 29.3566 5.69378L0.00222363 5.69378 0.0556581 6.50446 29.9966 6.50446C32.0414 6.52605 33.6106 6.1218 33.9173 5.14294 34.1812 6.10282 35.8568 6.52599 37.8935 6.50446L67.8347 6.50446ZM6.13708 14.3493C15.6167 8.00859 27.7997 15.7634 41.9558 33.8066 43.0546 34.4268 44.1525 35.0471 45.2513 35.6673L45.2513 33.1686C30.3926 9.96066 12.1199 2.91214 6.13708 14.3493ZM29.3286 75.9034C11.3453 53.6535 0.714929 13.558 20.6549 15.4384 8.8793 9.26225 3.78947 14.7153 4.57266 25.1092 7.2108 44.783 16.3299 61.2909 29.3286 75.9034ZM45.5261 27.0057 45.5261 37.1909 48.8498 33.8878 48.8498 27.0057ZM59.3122 27.0058 59.3122 40.9317 54.9488 40.9317 54.9488 43.7669 66.6344 43.7669 66.6344 40.9317 62.2811 40.9317 62.2811 27.0058ZM32.9872 27.0058 32.9872 40.9317 28.6239 40.9317 28.6239 43.7669 40.3093 43.7669 40.3093 40.9317 35.9561 40.9317 35.9561 27.0058ZM14.515 27.0058 14.515 43.7669 19.849 43.7669C21.8777 43.7669 23.1953 43.683 23.8017 43.5152 24.7376 43.2626 25.5254 42.7091 26.1655 41.8536 26.8057 40.998 27.1257 39.9134 27.1257 38.5995 27.1257 37.5682 26.944 36.7012 26.581 35.9984 26.2178 35.2955 25.7538 34.7474 25.1886 34.354 24.6233 33.9606 23.9927 33.6836 23.2965 33.5232L22.6563 33.4087 21.9713 33.3627 20.9382 33.3285 17.8389 33.3285 17.8389 27.0058ZM17.8389 40.9317 17.8389 36.1754 19.6581 36.1754C20.9681 36.1754 21.8309 36.2536 22.2465 36.4098 22.6619 36.566 23.0082 36.8405 23.2852 37.233 23.5623 37.6255 23.7006 38.0695 23.7006 38.565 23.7006 39.1823 23.5304 39.6835 23.1897 40.0685 22.8491 40.4533 22.398 40.7029 21.8366 40.8174L20.927 40.8973 19.4447 40.9317ZM23.6128 65.4549C29.9992 73.0757 35.1851 79.3023 41.5322 81.928 44.482 83.1486 51.0568 84.0126 54.6039 78.3445 56.7656 74.4751 58.5518 66.3734 53.6241 48.4015 57.8216 55.0154 60.4969 68.2867 59.3064 75.2251 57.558 83.0566 53.393 86.9017 47.3343 85.7407 39.5614 84.3257 31.5306 77.885 23.6128 65.4549Z" fill="#ED1C24" fill-rule="evenodd" transform="matrix(1.00947 0 0 -1 100 141)"/><text fill="#ED1C24" font-family="Open Sans,Open Sans_MSFontService,sans-serif" font-weight="700" font-size="367" transform="matrix(0.0584214 0 0 0.0578735 185.022 97)">PTIT</text><text fill="#ED1C24" font-family="Open Sans,Open Sans_MSFontService,sans-serif" font-weight="700" font-size="367" transform="matrix(0.0584214 0 0 0.0578735 185.022 122)">LIBRARY</text></g></svg>